# AST/ASF file generated using VICON BodyLanguage
# -----------------------------------------------
:version 1.10
:name VICON
:units
  mass 1.0
  length 0.45
  angle deg
:documentation
   .ast/.asf automatically generated from VICON data using
   VICON BodyBuilder and BodyLanguage model FoxedUp or BRILLIANT.MOD
:root
   order TX TY TZ RX RY RZ
   axis XYZ
   position 0 0 0  
   orientation 0 0 0 
:bonedata
  begin
     id 1 
     name lhipjoint
     direction 0.610259 -0.730986 0.305356 
     length 2.50941 
     axis 0 0 0  XYZ
  end
  begin
     id 2 
     name lfemur
     direction 0.34202 -0.939693 0  
     length 7.48822  
     axis 0 0 20  XYZ
    dof rx ry rz
    limits (-160.0 20.0)
           (-70.0 70.0)
           (-60.0 70.0)
  end
  begin
     id 3 
     name ltibia
     direction 0.34202 -0.939693 0   
     length 7.60141   
     axis 0 0 20   XYZ
    dof rx
    limits (-10.0 170.0)
  end
  begin
     id 4 
     name lfoot
     direction 0.0673488 -0.185039 0.980421   
     length 2.04049   
     axis -90 7.62852e-016 20   XYZ
    dof rx rz
    limits (-45.0 90.0)
           (-70.0 20.0)
  end
  begin
     id 5 
     name ltoes
     direction 1.5356e-011 -4.21729e-011 1   
     length 1.02897   
     axis -90 7.62852e-016 20   XYZ
    dof rx
    limits (-90.0 20.0)
  end
  begin
     id 6 
     name rhipjoint
     direction -0.57612 -0.754205 0.315056   
     length 2.43216  
     axis 0 0 0  XYZ 
  end
  begin
     id 7 
     name rfemur
     direction -0.34202 -0.939693 0   
     length 7.42799   
     axis 0 0 -20   XYZ
    dof rx ry rz
    limits (-160.0 20.0)
           (-70.0 70.0)
           (-70.0 60.0)
  end
  begin
     id 8 
     name rtibia
     direction -0.34202 -0.939693 0   
     length 7.69484   
     axis 0 0 -20   XYZ
    dof rx
    limits (-10.0 170.0)
 end
 begin
     id 9 
     name rfoot
     direction -0.111837 -0.30727 0.945028   
     length 2.15769  
     axis -90 -7.62852e-016 -20   XYZ
    dof rx rz
    limits (-45.0 90.0)
           (-20.0 70.0)
  end
  begin
     id 10 
     name rtoes
     direction -1.53539e-011 -4.21878e-011 1   
     length 1.07391   
     axis -90 -7.62852e-016 -20   XYZ
    dof rx
    limits (-90.0 20.0)
  end
  begin
     id 11 
     name lowerback
     direction 0.00552624 0.990109 -0.140195   
     length 2.12403   
     axis 0 0 0   XYZ
    dof rx ry rz
    limits (-20.0 45.0)
           (-30.0 30.0)
           (-30.0 30.0)
  end
  begin
     id 12 
     name upperback
     direction 0.00361898 0.999976 -0.00584723   
     length 2.13232   
     axis 0 0 0   XYZ
    dof rx ry rz
    limits (-20.0 45.0)
           (-30.0 30.0)
           (-30.0 30.0)
  end
  begin
     id 13 
     name thorax
     direction -0.000331275 0.998253 0.0590847   
     length 2.17688   
     axis 0 0 0   XYZ
    dof rx ry rz
    limits (-20.0 45.0)
           (-30.0 30.0)
           (-30.0 30.0)
  end
  begin
     id 14 
     name lowerneck
     direction -0.0561561 0.979832 0.19177   
     length 1.64159   
     axis 0 0 0   XYZ
    dof rx ry rz
    limits (-20.0 45.0)
           (-30.0 30.0)
           (-30.0 30.0)
  end
  begin
     id 15 
     name upperneck
     direction 0.0827153 0.979385 -0.184293   
     length 1.68939   
     axis 0 0 0   XYZ
    dof rx ry rz
    limits (-20.0 45.0)
           (-30.0 30.0)
           (-30.0 30.0)
  end
  begin
     id 16
     name head
     direction 0.0278583 0.995936 -0.0856488  
     length 1.70207  
     axis 0 0 0   XYZ
    dof rx ry rz
    limits (-20.0 45.0)
           (-30.0 30.0)
           (-30.0 30.0)
  end
  begin
     id 17 
     name lclavicle
     direction 0.950993 0.301131 -0.0702275  
     length 3.41652  
     axis 0 0 0   XYZ
    dof ry rz
    limits (-20.0 10.0)
           (0.0 20.0)
  end
  begin
     id 18 
     name lhumerus
     direction 1 -4.48981e-011 -3.9662e-029   
     length 5.32955   
     axis 180 -30 -90   XYZ
    dof rx ry rz
    limits (-60.0 90.0)
           (-90.0 90.0)
           (-90.0 90.0)
  end
  begin
     id 19
     name lradius
     direction 1 -4.48925e-011 -9.0549e-027   
     length 3.69232   
     axis 180 -30 -90   XYZ
    dof rx
    limits (-10.0 170.0)
  end
  begin
     id 20
     name lwrist
     direction 1 -4.49007e-011 -1.49005e-026   
     length 1.84616   
     axis 9.0955e-015 90 90   XYZ
    dof ry
    limits (-180.0 0.0)
 end
  begin
     id 21 
     name lhand
     direction 1 -4.49016e-011 -2.98023e-026   
     length 0.536598   
     axis 1.90115e-014 90 90   XYZ
    dof rx rz
    limits (-90.0 90.0)
           (-45.0 45.0)
  end
  begin
     id 22 
     name lfingers
     direction 1 -4.48924e-011 -5.9578e-026   
     length 0.432619   
     axis 3.80223e-014 90 90   XYZ
    dof rx
    limits (0.0 90.0)
  end
  begin
     id 23
     name lthumb
     direction 0.707107 -6.34947e-011 0.707107   
     length 0.621157   
     axis -90 45 -3.84942e-014   XYZ
    dof rx rz
    limits (-45.0 45.0)
           (-45.0 45.0)
  end
  begin
     id 24 
     name rclavicle
     direction -0.955495 0.276497 -0.102848   
     length 3.36357  
     axis 0 0 0   XYZ 
    dof ry rz
    limits (-10.0 20.0)
           (-20.0 0.0)
  end
  begin
     id 25 
     name rhumerus
     direction -1 -4.48961e-011 3.30983e-027  
     length 5.23431   
     axis 180 30 90   XYZ
    dof rx ry rz
    limits (-90.0 60.0)
           (-90.0 90.0)
           (-90.0 90.0)
  end
  begin
     id 26 
     name rradius
     direction -1 -4.48965e-011 -6.63263e-027   
     length 3.55301   
     axis 180 30 90   XYZ
    dof rx
    limits (-10.0 170.0)
  end
  begin
     id 27 
     name rwrist
     direction -1 -4.48942e-011 -1.48958e-026   
     length 1.77651   
     axis 9.0955e-015 -90 -90   XYZ
    dof ry
    limits (-180.0 0.0)
  end
  begin
     id 28
     name rhand
     direction -1 -4.48977e-011 -2.97966e-026   
     length 0.772522   
     axis 1.90115e-014 -90 -90   XYZ
    dof rx rz
    limits (-90.0 90.0)
           (-45.0 45.0)
  end
  begin
     id 29
     name rfingers
     direction -1 -4.49135e-011 -5.96389e-026   
     length 0.622827   
     axis 3.80223e-014 -90 -90   XYZ
    dof rx
    limits (0.0 90.0)
  end
  begin
     id 30
     name rthumb
     direction -0.707107 -6.34969e-011 0.707107   
     length 0.894259   
     axis -90 -45 3.84942e-014   XYZ
    dof rx rz
    limits (-45.0 45.0)
           (-45.0 45.0)
  end
:hierarchy
  begin
    root lhipjoint rhipjoint lowerback
    lhipjoint lfemur
    lfemur ltibia
    ltibia lfoot
    lfoot ltoes
    rhipjoint rfemur
    rfemur rtibia
    rtibia rfoot
    rfoot rtoes
    lowerback upperback
    upperback thorax
    thorax lowerneck lclavicle rclavicle
    lowerneck upperneck
    upperneck head
    lclavicle lhumerus
    lhumerus lradius
    lradius lwrist
    lwrist lhand lthumb
    lhand lfingers
    rclavicle rhumerus
    rhumerus rradius
    rradius rwrist
    rwrist rhand rthumb
    rhand rfingers
  end

#!OML:ASF F:\VICON\USERDATA\INSTALL\rory3\rory3.ASF
:FULLY-SPECIFIED
:DEGREES
32
root -10.164 18.1178 -12.8307 177.684 -6.25475 180.753
lowerback 9.42998 3.5628 1.25228
upperback 0.77862 4.81424 0.33275
thorax -4.38954 2.32942 -0.97775
lowerneck -8.07791 -1.02917 -12.2429
upperneck 40.9795 -8.69341 8.62343
head 17.2155 -6.37685 4.13359
rclavicle 2.95071e-014 -1.68967e-015
rhumerus -24.6899 -14.9032 -79.6732
rradius 37.9502
rwrist 2.79445
rhand -17.1915 6.64203
rfingers 7.12502
rthumb 9.05054 -23.1438
lclavicle 2.95071e-014 -1.68967e-015
lhumerus -40.2866 13.5402 71.2522
lradius 26.3766
lwrist -9.85785
lhand -18.1788 25.3249
lfingers 7.12502
lthumb 8.09776 55.1498
rfemur 9.90989 -0.460737 23.4273
rtibia 40.009
rfoot 0.181947 4.27517
rtoes -17.6595
lfemur -13.2426 -2.33841 -22.1971
ltibia 24.7919
lfoot 1.98715 -14.931
ltoes -1.44171
33
root -10.1536 18.1066 -12.6921 177.844 -5.84035 180.823
lowerback 9.36937 3.7241 1.43401
upperback 0.700173 5.04995 0.283445
thorax -4.41225 2.44344 -1.15801
lowerneck -8.16614 -1.10951 -12.3762
upperneck 40.8409 -8.76776 8.80179
head 17.1934 -6.38474 4.22703
rclavicle 9.95166e-015 -8.84592e-015
rhumerus -24.3262 -15.0326 -79.7511
rradius 37.9238
rwrist 2.75446
rhand -17.1353 6.50161
rfingers 7.12502
rthumb 9.10481 -23.2819
lclavicle 9.95166e-015 -8.84592e-015
lhumerus -40.3283 13.7451 71.1301
lradius 26.412
lwrist -9.53051
lhand -17.8738 25.7561
lfingers 7.12502
lthumb 8.39217 55.5694
rfemur 10.4225 0.105915 23.8129
rtibia 38.6592
rfoot 1.38428 4.50043
rtoes -17.512
lfemur -13.8872 -2.31937 -22.0023
ltibia 24.7257
lfoot 2.25622 -14.904
ltoes -2.47523
34
root -10.1427 18.0945 -12.5499 177.924 -5.41018 180.911
lowerback 9.33614 3.85932 1.66738
upperback 0.701099 5.25121 0.235906
thorax -4.36198 2.53901 -1.35834
lowerneck -8.38811 -1.16232 -12.3624
upperneck 40.7652 -8.71022 8.75385
head 17.1945 -6.33361 4.21044
rclavicle -2.35808e-014 -1.88845e-015
rhumerus -23.848 -15.1358 -79.8842
rradius 38.0293
rwrist 3.02534
rhand -17.0182 5.80874
rfingers 7.12502
rthumb 9.21782 -23.9698
lclavicle -2.35808e-014 -1.88845e-015
lhumerus -40.3462 14.088 71.0131
lradius 26.5188
lwrist -9.1328
lhand -17.9683 26.1206
lfingers 7.12502
lthumb 8.30095 55.9375
rfemur 10.9708 0.646606 24.1808
rtibia 37.2118
rfoot 2.92122 4.95564
rtoes -15.9871
lfemur -14.4121 -2.3219 -21.777
ltibia 24.5956
lfoot 2.51346 -14.7828
ltoes -2.77981
35
root -10.1325 18.0874 -12.4086 177.97 -4.95067 180.984
lowerback 9.33837 3.9969 1.88639
upperback 0.729445 5.45288 0.197395
thorax -4.3031 2.63481 -1.5422
lowerneck -8.66616 -1.20823 -12.3435
upperneck 40.6884 -8.62766 8.71238
head 17.2054 -6.26643 4.20005
rclavicle 5.42931e-015 4.37326e-015
rhumerus -23.3062 -15.3547 -80.0303
rradius 37.9488
rwrist 3.35646
rhand -17.1221 5.86885
rfingers 7.12502
rthumb 9.11753 -23.9141
lclavicle 5.42931e-015 4.37326e-015
lhumerus -40.3837 14.6654 70.8044
lradius 26.7006
lwrist -8.96199
lhand -18.208 26.1479
lfingers 7.12502
lthumb 8.06961 55.9738
rfemur 11.5339 1.24767 24.5062
rtibia 35.6411
rfoot 4.68423 5.59086
rtoes -12.8003
lfemur -14.8718 -2.13526 -21.5903
ltibia 24.4293
lfoot 2.7173 -14.7943
ltoes -4.38297
36
root -10.1248 18.0836 -12.266 178.094 -4.5707 180.96
lowerback 9.27869 4.12502 2.07506
upperback 0.737616 5.63719 0.10141
thorax -4.22672 2.72366 -1.76185
lowerneck -8.87934 -1.29765 -12.3678
upperneck 40.5696 -8.65533 8.76245
head 17.2041 -6.24288 4.22079
rclavicle -7.01586e-014 2.08724e-015
rhumerus -22.9191 -15.627 -80.1652
rradius 37.884
rwrist 3.45333
rhand -17.3163 6.346
rfingers 7.12502
rthumb 8.93017 -23.445
lclavicle -7.01586e-014 2.08724e-015
lhumerus -40.4148 15.1207 70.6215
lradius 26.9519
lwrist -8.7981
lhand -18.1727 25.8307
lfingers 7.12502
lthumb 8.10369 55.6554
rfemur 11.9781 1.70418 24.6479
rtibia 34.0072
rfoot 6.19238 6.32038
rtoes -8.60106
lfemur -15.4014 -1.97676 -21.5158
ltibia 24.2075
lfoot 3.06024 -14.8335
ltoes -5.53509
37
root -10.1164 18.0708 -12.1159 178.279 -4.26088 181.007
lowerback 9.18565 4.23086 2.35788
upperback 0.727635 5.80226 0.0146395
thorax -4.14139 2.80217 -2.01877
lowerneck -9.08823 -1.41162 -12.5009
upperneck 40.3895 -8.71012 8.90937
head 17.1854 -6.22987 4.30142
rclavicle 2.00804e-014 -1.88845e-015
rhumerus -22.4913 -15.7772 -80.3221
rradius 37.789
rwrist 3.42465
rhand -17.2768 6.11568
rfingers 7.12502
rthumb 8.9682 -23.6737
lclavicle 2.00804e-014 -1.88845e-015
lhumerus -40.3037 15.4292 70.5458
lradius 27.0622
lwrist -8.57372
lhand -17.9264 25.8958
lfingers 7.12502
lthumb 8.34139 55.7111
rfemur 12.2936 1.86756 24.7754
rtibia 32.3834
rfoot 6.9616 6.68162
rtoes -4.81742
lfemur -15.9974 -1.93511 -21.3287
ltibia 23.9043
lfoot 3.6795 -14.7909
ltoes -5.31838
38
root -10.1033 18.0462 -11.9576 178.544 -3.94082 180.828
lowerback 9.18521 4.31944 2.3292
upperback 0.645861 5.91673 -0.124302
thorax -4.20916 2.85825 -2.16377
lowerneck -9.39501 -1.5177 -12.5627
upperneck 40.2381 -8.70448 8.94662
head 17.1862 -6.18993 4.3272
rclavicle -9.64106e-014 5.11871e-015
rhumerus -22.0849 -15.9668 -80.4901
rradius 37.6665
rwrist 3.64252
rhand -16.9148 5.99553
rfingers 7.12502
rthumb 9.31753 -23.7786
lclavicle -9.64106e-014 5.11871e-015
lhumerus -40.2723 15.7891 70.413
lradius 27.128
lwrist -8.35004
lhand -17.6723 26.164
lfingers 7.12502
lthumb 8.58661 55.9693
rfemur 12.4651 1.78512 24.5641
rtibia 30.8484
rfoot 6.84139 6.49674
rtoes -3.15415
lfemur -16.6456 -1.89919 -21.3651
ltibia 23.5956
lfoot 4.2858 -14.9845
ltoes -9.24648
